Coordinates
version=1
nRows=10
nColumns=40
inDegrees=yes

Units are S.I. units (second, meters, Newtons, ...)
Angles are in degrees.

endheader
time	pelvis_tilt	pelvis_list	pelvis_rotation	pelvis_tx	pelvis_ty	pelvis_tz	hip_flexion_r	hip_adduction_r	hip_rotation_r	knee_angle_r	knee_angle_r_beta	ankle_angle_r	subtalar_angle_r	mtp_angle_r	hip_flexion_l	hip_adduction_l	hip_rotation_l	knee_angle_l	knee_angle_l_beta	ankle_angle_l	subtalar_angle_l	mtp_angle_l	lumbar_extension	lumbar_bending	lumbar_rotation	arm_flex_r	arm_add_r	arm_rot_r	elbow_flex_r	pro_sup_r	wrist_flex_r	wrist_dev_r	arm_flex_l	arm_add_l	arm_rot_l	elbow_flex_l	pro_sup_l	wrist_flex_l	wrist_dev_l
     38.71500000	     -7.53858219	     -5.02965819	      1.88226704	      1.09411424	      0.91212172	      0.46632024	     27.71502943	      0.72964035	    -10.49089900	     26.20375050	     26.20375050	      7.27441598	     -6.90645399	      0.71579814	      9.37119055	    -11.90415332	     -2.61117108	     41.51890101	     41.51890101	     11.16350670	    -12.65080445	    -11.79561527	    -11.06393287	      5.42170746	      3.10987678	    -12.83119377	    -12.45933921	     -0.37857180	     28.04291347	     46.49121573	      0.00000000	      0.00000000	     15.37560055	    -17.16159541	     -3.76783295	     96.56960493	     48.06128450	      0.00000000	      0.00000000
     38.72685714	     -7.71004334	     -5.39695252	      2.09700173	      1.09340679	      0.91310354	      0.46923961	     27.06087881	      1.26713211	    -10.96094337	     25.64284584	     25.64284584	      7.62205238	     -6.60505957	      0.71165174	     11.69902388	    -12.53524700	     -1.43763233	     45.48938228	     45.48938228	      8.82890664	    -14.09727439	    -11.45528360	    -11.08408188	      5.72516576	      3.08056032	    -11.55316322	    -12.22494424	     -0.29295313	     28.67350282	     46.46598330	      0.00000000	      0.00000000	     14.07175779	    -16.64487369	     -3.75572635	     94.93437387	     48.02442060	      0.00000000	      0.00000000
     38.73871429	     -7.92026986	     -5.48254254	      2.30609652	      1.09263632	      0.91416402	      0.47169003	     26.44604576	      1.44919266	    -11.48023971	     25.09847267	     25.09847267	      7.94779102	     -6.03041858	      0.69990672	     14.05880596	    -12.55044130	      0.02857919	     49.27387628	     49.27387628	      6.68173067	    -15.87043016	     -9.73018875	    -10.92738200	      5.73904288	      2.76362644	    -10.31977722	    -12.17233009	     -0.01954074	     29.67683290	     46.40302294	      0.00000000	      0.00000000	     13.02306432	    -15.87167127	     -4.62503664	     91.42828311	     48.01480669	      0.00000000	      0.00000000
     38.75057143	     -8.08201401	     -5.76054494	      2.45769419	      1.09174298	      0.91514299	      0.47427574	     25.76338484	      1.90468187	    -11.90504675	     24.45630001	     24.45630001	      8.18578664	     -5.59426679	      0.70674829	     16.43279690	    -12.89271034	      1.18044941	     52.94619704	     52.94619704	      4.81847570	    -16.74081576	     -8.30472478	    -10.95611090	      5.92366277	      2.77806620	     -8.98961239	    -12.08120439	      0.07123942	     30.53721123	     46.36635008	      0.00000000	      0.00000000	     11.82231699	    -15.31296640	     -4.58923198	     89.31382417	     47.96891111	      0.00000000	      0.00000000
     38.76242857	     -8.13020479	     -5.74455930	      2.55027614	      1.09081464	      0.91634494	      0.47641950	     25.06121858	      1.99315504	    -12.33138162	     24.05781147	     24.05781147	      8.51066453	     -4.86868193	      0.55745553	     18.73962064	    -12.66168938	      2.38839349	     56.65915400	     56.65915400	      4.93358054	    -16.89070623	     -2.18983941	    -11.02976425	      5.86624206	      3.14876694	     -8.01133305	    -12.19882941	      0.50879168	     32.28003039	     46.25012071	      0.00000000	      0.00000000	     11.72454333	    -13.96176624	     -5.26775298	     84.36310163	     47.93111761	      0.00000000	      0.00000000
     38.77428571	     -8.22597902	     -5.80973604	      2.61352674	      1.08978935	      0.91736687	      0.47864288	     24.39571408	      2.23106845	    -12.60559719	     23.57855400	     23.57855400	      8.75588584	     -4.41455796	      0.50651706	     21.05835975	    -12.58818980	      3.37977491	     59.96973735	     59.96973735	      4.91311118	    -16.93991174	      2.39539636	    -11.08013825	      5.81147617	      3.42481731	     -6.85959437	    -12.31468348	      0.62779656	     34.09032592	     46.15234348	      0.00000000	      0.00000000	     11.10787145	    -13.33836008	     -4.84083926	     80.76051843	     47.84589379	      0.00000000	      0.00000000
     38.78614286	     -8.21345856	     -5.81658372	      2.67519839	      1.08876513	      0.91848465	      0.48076306	     23.66428962	      2.41341588	    -12.79923598	     23.20495416	     23.20495416	      9.03169949	     -4.03591601	      0.44447082	     23.07266045	    -12.48169659	      4.16294524	     62.65054392	     62.65054392	      4.13787179	    -17.37903292	      3.95859168	    -11.22943240	      5.68772293	      3.10696127	     -5.01824997	    -12.30293572	      0.47986237	     35.41330190	     46.11198102	      0.00000000	      0.00000000	     10.06511598	    -13.11356867	     -4.79017289	     77.29092619	     47.77867097	      0.00000000	      0.00000000
     38.79800000	     -8.24131698	     -5.82570585	      2.71929163	      1.08758322	      0.91947794	      0.48272449	     22.99926718	      2.59469918	    -12.95555494	     22.84061464	     22.84061464	      9.29419476	     -3.68381894	      0.41965105	     25.20132809	    -12.28425272	      4.94738129	     65.18999756	     65.18999756	      4.56870552	    -17.51289057	      7.50489573	    -11.31016859	      5.57154561	      3.69629333	     -3.94048658	    -12.43680263	     -0.00077893	     37.47910749	     46.03243524	      0.00000000	      0.00000000	     10.07994809	    -12.24529852	     -4.38560712	     72.45422457	     47.67637719	      0.00000000	      0.00000000
     38.80985714	     -8.21931422	     -5.82037422	      2.79005602	      1.08629803	      0.92048489	      0.48460885	     22.32607291	      2.74484907	    -13.11980262	     22.55282022	     22.55282022	      9.54200387	     -3.36955931	      0.36547436	     27.14225808	    -12.16337048	      5.49746191	     67.14514616	     67.14514616	      4.32709047	    -17.91692216	      8.15167949	    -11.47215594	      5.37544946	      3.39966050	     -1.91571084	    -12.41901276	     -0.21563011	     38.70364699	     46.00133329	      0.00000000	      0.00000000	      9.28042320	    -11.89828276	     -4.49818538	     68.51355411	     47.61201950	      0.00000000	      0.00000000
     38.82171429	     -8.20617839	     -5.78955652	      2.87587248	      1.08499353	      0.92142105	      0.48630042	     21.65061410	      2.87231680	    -13.19886830	     22.24344765	     22.24344765	      9.86442248	     -3.11705006	      0.33135306	     29.09467335	    -11.99702004	      5.96774888	     68.80010701	     68.80010701	      4.63836171	    -18.13361201	      9.65168260	    -11.50087601	      5.24299178	      3.76979429	     -0.31211343	    -12.54503020	     -0.50204553	     40.21848948	     45.95276424	      0.00000000	      0.00000000	      9.49620366	    -10.97760750	     -4.74092150	     62.90199533	     47.54041087	      0.00000000	      0.00000000
